<svg width="400" height="400" viewBox="0 0 400 400" fill="none" xmlns="http://www.w3.org/2000/svg">
<g filter="url(#filter0_f_164_2)">
<path d="M200.611 350.394C283.603 350.394 350.881 283.105 350.881 200.1C350.881 117.094 283.603 49.8047 200.611 49.8047C117.62 49.8047 50.3418 117.094 50.3418 200.1C50.3418 283.105 117.62 350.394 200.611 350.394Z" fill="#FF5555"/>
</g>
<path d="M200.611 350.394C283.603 350.394 350.881 283.105 350.881 200.1C350.881 117.094 283.603 49.8047 200.611 49.8047C117.62 49.8047 50.3418 117.094 50.3418 200.1C50.3418 283.105 117.62 350.394 200.611 350.394Z" fill="#FF8080"/>
<path d="M248.53 189.642C256.239 189.642 262.489 183.391 262.489 175.681C262.489 167.97 256.239 161.719 248.53 161.719C240.82 161.719 234.57 167.97 234.57 175.681C234.57 183.391 240.82 189.642 248.53 189.642Z" fill="black"/>
<path d="M256.884 171.218C256.608 171.336 250.489 165.754 250.093 164.903C249.277 163.147 254.06 165.408 254.902 166.542C256.751 168.491 257.589 171.077 256.884 171.218Z" fill="white"/>
<path d="M152.582 189.642C160.292 189.642 166.542 183.391 166.542 175.681C166.542 167.97 160.292 161.719 152.582 161.719C144.873 161.719 138.623 167.97 138.623 175.681C138.623 183.391 144.873 189.642 152.582 189.642Z" fill="black"/>
<path d="M160.937 171.218C160.661 171.336 154.542 165.754 154.146 164.903C153.33 163.147 158.113 165.408 158.955 166.542C160.804 168.491 161.641 171.077 160.937 171.218Z" fill="white"/>
<g style="mix-blend-mode:darken" filter="url(#filter1_f_164_2)">
<path d="M104.519 173.047C104.023 173.048 103.527 173.054 103.031 173.064C102.508 173.076 101.985 173.094 101.463 173.117C100.943 173.141 100.423 173.17 99.9033 173.205C99.3801 173.24 98.8573 173.281 98.335 173.328C97.8146 173.369 97.2947 173.416 96.7754 173.468C96.2579 173.521 95.7409 173.579 95.2246 173.643C94.707 173.71 94.19 173.783 93.6739 173.861C93.1561 173.934 92.6392 174.012 92.1231 174.096C91.6081 174.184 91.0941 174.278 90.5811 174.377C90.0695 174.474 89.559 174.577 89.0496 174.686C88.538 174.792 88.0275 174.904 87.5181 175.021C87.0093 175.139 86.5017 175.263 85.9954 175.393C85.4894 175.523 84.9847 175.659 84.4815 175.8C83.9783 175.94 83.4765 176.085 82.9763 176.235C82.4759 176.387 81.9771 176.544 81.4799 176.707C80.9859 176.868 80.4935 177.034 80.0029 177.205C79.5087 177.375 79.0163 177.551 78.5258 177.732C78.0373 177.914 77.5508 178.101 77.0662 178.293C76.5806 178.484 76.0969 178.681 75.6154 178.883C75.1326 179.083 74.6519 179.288 74.1734 179.498C73.6969 179.711 73.2226 179.929 72.7507 180.151C72.277 180.372 71.8057 180.599 71.3367 180.83C70.8717 181.064 70.4092 181.303 69.9491 181.546C69.484 181.786 69.0215 182.031 68.5615 182.281C68.1056 182.533 67.6524 182.79 67.202 183.051C66.7489 183.313 66.2986 183.579 65.8512 183.85C65.4039 184.12 64.9594 184.395 64.5179 184.674C64.077 184.954 63.639 185.238 63.204 185.527C62.7688 185.816 62.3366 186.109 61.9076 186.406C61.4781 186.704 61.0518 187.006 60.6287 187.313C60.2086 187.617 59.7916 187.925 59.3779 188.238C58.9605 188.554 58.5465 188.875 58.1359 189.199C57.7278 189.524 57.3231 189.854 56.9219 190.187C56.5196 190.519 56.1208 190.854 55.7255 191.194C55.329 191.535 54.936 191.879 54.5466 192.228C54.1593 192.578 53.7757 192.931 53.3959 193.289C53.0143 193.648 52.6365 194.011 52.2626 194.377C51.8904 194.742 51.5219 195.11 51.1574 195.482C50.7909 195.856 50.4283 196.234 50.0698 196.616C49.712 196.996 49.3582 197.38 49.0084 197.767C48.66 198.153 48.3155 198.544 47.9752 198.937C47.6324 199.333 47.2938 199.731 46.9594 200.134C46.6289 200.536 46.3026 200.941 45.9806 201.35C45.6558 201.76 45.3353 202.175 45.0192 202.592C44.7038 203.006 44.3927 203.423 44.0859 203.843C43.7792 204.266 43.4768 204.693 43.179 205.122C42.8786 205.551 42.5827 205.983 42.2913 206.419C42.0026 206.854 41.7183 207.292 41.4387 207.733C41.1593 208.174 40.8844 208.619 40.6143 209.066C40.3435 209.511 40.0775 209.958 39.8161 210.409C39.5546 210.862 39.2979 211.318 39.046 211.777C38.7961 212.234 38.5511 212.694 38.3109 213.156C38.0674 213.619 37.8288 214.085 37.5952 214.553C37.3634 215.019 37.1365 215.487 36.9145 215.958C36.692 216.43 36.4745 216.905 36.2619 217.381C36.0481 217.86 35.8393 218.341 35.6356 218.823C35.4341 219.305 35.2376 219.789 35.0462 220.275C34.854 220.759 34.6669 221.246 34.4849 221.734C34.3043 222.225 34.1288 222.717 33.9586 223.212C33.7844 223.702 33.6154 224.195 33.4516 224.689C33.292 225.186 33.1376 225.685 32.9885 226.186C32.8352 226.686 32.6873 227.188 32.5446 227.691C32.4066 228.194 32.2738 228.699 32.1464 229.205C32.0142 229.712 31.8873 230.219 31.7657 230.728C31.6487 231.235 31.537 231.742 31.4307 232.251C31.3223 232.764 31.2194 233.278 31.1219 233.793C31.023 234.306 30.9294 234.821 30.8412 235.336C30.7546 235.849 30.6733 236.363 30.5974 236.878C30.5224 237.394 30.4528 237.911 30.3886 238.429C30.3223 238.948 30.2615 239.468 30.2062 239.989C30.1481 240.508 30.0955 241.028 30.0483 241.549C30.0078 242.068 29.9727 242.588 29.9431 243.108C29.9083 243.631 29.8791 244.154 29.8553 244.677C29.8324 245.197 29.8148 245.717 29.8027 246.237C29.7914 246.76 29.7855 247.282 29.7852 247.805C29.7861 248.301 29.7919 248.797 29.8027 249.293C29.8147 249.816 29.8323 250.339 29.8553 250.862C29.8791 251.385 29.9083 251.908 29.9431 252.43C29.9785 252.951 30.0195 253.471 30.0659 253.99C30.1072 254.511 30.154 255.031 30.2062 255.55C30.2592 256.071 30.3177 256.591 30.3816 257.11C30.4487 257.628 30.5212 258.145 30.5991 258.661C30.675 259.176 30.7563 259.69 30.843 260.203C30.9282 260.718 31.0189 261.232 31.1149 261.745C31.2124 262.26 31.3153 262.773 31.4236 263.286C31.5329 263.795 31.6476 264.302 31.7675 264.809C31.8861 265.318 32.0101 265.825 32.1394 266.332C32.2668 266.838 32.3996 267.343 32.5376 267.846C32.6774 268.349 32.8224 268.851 32.9727 269.351C33.1247 269.852 33.282 270.351 33.4445 270.848C33.6054 271.346 33.7715 271.842 33.9428 272.336C34.1131 272.827 34.2885 273.317 34.4691 273.805C34.651 274.296 34.8382 274.786 35.0304 275.273C35.2218 275.759 35.4183 276.242 35.6198 276.724C35.8236 277.204 36.0324 277.682 36.2461 278.158C36.4558 278.634 36.6704 279.109 36.89 279.581C37.1119 280.054 37.3388 280.526 37.5706 280.995C37.8043 281.463 38.0429 281.928 38.2863 282.391C38.5266 282.853 38.7716 283.312 39.0214 283.769C39.2733 284.228 39.53 284.684 39.7915 285.137C40.0529 285.587 40.319 286.035 40.5897 286.479C40.8599 286.927 41.1347 287.371 41.4142 287.813C41.6938 288.254 41.978 288.692 42.2668 289.127C42.5552 289.562 42.8482 289.995 43.1457 290.424C43.4435 290.853 43.7458 291.28 44.0526 291.703C44.3593 292.126 44.6704 292.546 44.9859 292.963C45.2991 293.377 45.6166 293.788 45.9384 294.196C46.2634 294.608 46.5926 295.016 46.9261 295.421C47.2576 295.823 47.5933 296.222 47.9331 296.617C48.2763 297.011 48.6237 297.401 48.9751 297.788C49.3248 298.178 49.6786 298.565 50.0364 298.947C50.3921 299.326 50.7518 299.701 51.1153 300.072C51.4804 300.448 51.8494 300.82 52.2222 301.188C52.5962 301.552 52.974 301.911 53.3555 302.267C53.7354 302.625 54.119 302.979 54.5063 303.329C54.8927 303.677 55.2828 304.022 55.6764 304.362C56.0717 304.705 56.4705 305.044 56.8728 305.378C57.274 305.711 57.6787 306.041 58.0868 306.366C58.4974 306.691 58.9114 307.011 59.3288 307.327C59.7454 307.643 60.1652 307.954 60.5883 308.261C61.0085 308.567 61.4319 308.87 61.8585 309.168C62.2875 309.465 62.7197 309.758 63.1549 310.047C63.5899 310.336 64.0279 310.62 64.4688 310.9C64.9103 311.179 65.3548 311.454 65.8021 311.724C66.2466 311.995 66.694 312.261 67.1441 312.522C67.5975 312.784 68.0536 313.041 68.5124 313.293C68.9688 313.545 69.4279 313.794 69.8895 314.037C70.3525 314.277 70.818 314.513 71.2859 314.744C71.7548 314.976 72.2262 315.203 72.6998 315.425C73.1718 315.647 73.646 315.865 74.1225 316.077C74.5975 316.291 75.0747 316.5 75.554 316.704C76.0355 316.905 76.5192 317.102 77.0048 317.293C77.4894 317.485 77.9759 317.673 78.4644 317.855C78.9548 318.038 79.4472 318.217 79.9415 318.39C80.4321 318.561 80.9245 318.727 81.4185 318.888C81.9157 319.051 82.4145 319.208 82.9149 319.36C83.4151 319.51 83.9169 319.655 84.4201 319.795C84.9233 319.937 85.428 320.073 85.934 320.204C86.4403 320.333 86.9479 320.457 87.4567 320.576C87.9631 320.696 88.4707 320.81 88.9794 320.92C89.4923 321.028 90.0064 321.131 90.5214 321.229C91.0345 321.325 91.5485 321.415 92.0635 321.501C92.5766 321.588 93.0906 321.67 93.6055 321.746C94.1216 321.824 94.6386 321.897 95.1562 321.964C95.6754 322.029 96.1953 322.09 96.7158 322.145C97.2351 322.197 97.755 322.244 98.2753 322.285C98.7947 322.331 99.3146 322.372 99.8348 322.408C100.357 322.442 100.88 322.472 101.403 322.495C101.926 322.519 102.449 322.536 102.971 322.548C103.491 322.559 104.011 322.565 104.531 322.566C105.03 322.565 105.529 322.559 106.027 322.548C106.547 322.536 107.067 322.518 107.587 322.495C108.11 322.472 108.633 322.442 109.155 322.408C109.676 322.378 110.195 322.343 110.715 322.302C111.235 322.261 111.755 322.214 112.274 322.162C112.795 322.107 113.315 322.047 113.834 321.981C114.352 321.917 114.869 321.848 115.385 321.773C115.902 321.696 116.419 321.614 116.935 321.527C117.45 321.439 117.964 321.345 118.477 321.246C118.989 321.149 119.5 321.046 120.009 320.937C120.521 320.831 121.031 320.719 121.54 320.602C122.046 320.484 122.551 320.36 123.054 320.23C123.56 320.099 124.065 319.963 124.568 319.821C125.071 319.682 125.573 319.537 126.073 319.386C126.574 319.237 127.073 319.083 127.57 318.923C128.067 318.762 128.563 318.596 129.057 318.425C129.549 318.252 130.038 318.073 130.526 317.89C131.017 317.708 131.507 317.521 131.994 317.328C132.48 317.137 132.963 316.94 133.445 316.739C133.924 316.538 134.401 316.333 134.876 316.123C135.353 315.91 135.827 315.693 136.299 315.47C136.773 315.248 137.244 315.021 137.713 314.789C138.181 314.559 138.646 314.323 139.109 314.082C139.571 313.839 140.03 313.591 140.487 313.338C140.945 313.086 141.401 312.83 141.855 312.568C142.308 312.31 142.758 312.046 143.206 311.779C143.649 311.508 144.09 311.233 144.528 310.954C144.969 310.674 145.407 310.39 145.842 310.101C146.278 309.813 146.71 309.52 147.139 309.222C147.568 308.924 147.994 308.622 148.418 308.315C148.841 308.008 149.261 307.697 149.677 307.382C150.094 307.065 150.509 306.745 150.919 306.42C151.327 306.095 151.732 305.766 152.133 305.432C152.535 305.101 152.934 304.765 153.33 304.425C153.723 304.085 154.113 303.74 154.5 303.392C154.89 303.042 155.276 302.688 155.659 302.33C156.038 301.972 156.413 301.609 156.784 301.242C157.159 300.878 157.531 300.509 157.899 300.137C158.263 299.766 158.623 299.391 158.978 299.012C159.336 298.632 159.69 298.249 160.04 297.861C160.391 297.472 160.738 297.079 161.082 296.682C161.421 296.287 161.757 295.888 162.089 295.486C162.422 295.084 162.751 294.678 163.076 294.27C163.401 293.859 163.721 293.445 164.038 293.027C164.353 292.614 164.664 292.197 164.971 291.777C165.278 291.353 165.58 290.927 165.878 290.497C166.175 290.068 166.468 289.636 166.757 289.201C167.045 288.766 167.33 288.328 167.609 287.887C167.889 287.448 168.164 287.006 168.434 286.562C168.705 286.114 168.971 285.664 169.232 285.211C169.493 284.758 169.75 284.301 170.002 283.842C170.255 283.385 170.503 282.926 170.746 282.463C170.986 282 171.222 281.535 171.453 281.067C171.688 280.601 171.917 280.132 172.142 279.661C172.365 279.189 172.582 278.715 172.795 278.238C173.005 277.76 173.21 277.279 173.411 276.796C173.615 276.315 173.815 275.831 174.009 275.345C174.198 274.86 174.382 274.374 174.561 273.885C174.745 273.398 174.923 272.908 175.096 272.417C175.268 271.922 175.434 271.426 175.595 270.929C175.757 270.432 175.915 269.933 176.067 269.432C176.217 268.932 176.362 268.43 176.502 267.927C176.643 267.423 176.779 266.919 176.91 266.413C177.04 265.909 177.164 265.404 177.282 264.898C177.402 264.389 177.517 263.878 177.626 263.367C177.734 262.857 177.837 262.347 177.935 261.835C178.034 261.322 178.127 260.808 178.216 260.293C178.302 259.776 178.384 259.259 178.459 258.742C178.534 258.225 178.604 257.708 178.668 257.191C178.734 256.671 178.794 256.151 178.849 255.631C178.901 255.111 178.948 254.591 178.989 254.071C179.036 253.551 179.077 253.031 179.112 252.511C179.147 251.992 179.176 251.472 179.2 250.951C179.223 250.429 179.24 249.906 179.252 249.383C179.264 248.86 179.27 248.337 179.27 247.814C179.269 247.318 179.263 246.822 179.252 246.326C179.24 245.803 179.223 245.28 179.2 244.758C179.176 244.237 179.147 243.718 179.112 243.198C179.082 242.675 179.047 242.152 179.007 241.629C178.965 241.109 178.919 240.589 178.866 240.069C178.812 239.552 178.751 239.035 178.686 238.518C178.622 237.998 178.552 237.478 178.477 236.959C178.401 236.444 178.32 235.93 178.233 235.416C178.145 234.901 178.051 234.387 177.952 233.874C177.855 233.359 177.752 232.845 177.644 232.332C177.537 231.823 177.426 231.315 177.309 230.809C177.19 230.3 177.066 229.792 176.937 229.286C176.806 228.78 176.67 228.275 176.528 227.772C176.388 227.268 176.243 226.767 176.093 226.266C175.944 225.766 175.789 225.267 175.63 224.77C175.469 224.276 175.303 223.783 175.132 223.292C174.958 222.798 174.78 222.306 174.597 221.815C174.417 221.326 174.233 220.84 174.044 220.355C173.85 219.869 173.65 219.386 173.446 218.904C173.246 218.421 173.04 217.941 172.83 217.462C172.617 216.985 172.4 216.511 172.177 216.039C171.956 215.565 171.73 215.094 171.498 214.625C171.268 214.157 171.032 213.691 170.792 213.228C170.548 212.766 170.3 212.307 170.048 211.851C169.799 211.395 169.545 210.942 169.286 210.491C169.025 210.038 168.759 209.588 168.488 209.14C168.218 208.693 167.943 208.248 167.664 207.807C167.384 207.366 167.1 206.927 166.811 206.492C166.523 206.057 166.23 205.625 165.932 205.196C165.634 204.766 165.332 204.34 165.025 203.917C164.719 203.494 164.407 203.074 164.092 202.657C163.776 202.242 163.455 201.831 163.131 201.423C162.806 201.015 162.476 200.609 162.143 200.207C161.812 199.805 161.476 199.406 161.136 199.011C160.796 198.614 160.451 198.221 160.103 197.832C159.753 197.444 159.399 197.061 159.041 196.681C158.686 196.299 158.326 195.921 157.963 195.547C157.595 195.174 157.223 194.805 156.847 194.44C156.476 194.074 156.101 193.711 155.722 193.352C155.342 192.995 154.959 192.641 154.572 192.291C154.182 191.942 153.789 191.598 153.393 191.257C152.997 190.915 152.599 190.576 152.196 190.242C151.795 189.908 151.39 189.579 150.982 189.254C150.575 188.932 150.163 188.614 149.749 188.301C149.333 187.983 148.913 187.668 148.489 187.359C148.066 187.052 147.64 186.75 147.211 186.452C146.782 186.154 146.349 185.861 145.914 185.573C145.482 185.284 145.047 185 144.609 184.72C144.168 184.44 143.723 184.166 143.276 183.895C142.828 183.624 142.378 183.358 141.925 183.097C141.475 182.836 141.021 182.579 140.565 182.327C140.106 182.074 139.643 181.826 139.178 181.583C138.718 181.342 138.255 181.107 137.79 180.876C137.321 180.644 136.85 180.417 136.376 180.195C135.904 179.972 135.43 179.755 134.954 179.542C134.475 179.328 133.994 179.12 133.512 178.916C133.033 178.714 132.552 178.518 132.07 178.326C131.582 178.134 131.093 177.947 130.601 177.765C130.114 177.581 129.624 177.403 129.133 177.23C128.639 177.058 128.144 176.892 127.647 176.731C127.15 176.572 126.651 176.417 126.151 176.268C125.65 176.115 125.149 175.967 124.645 175.824C124.142 175.686 123.638 175.553 123.132 175.426C122.628 175.294 122.124 175.167 121.618 175.045C121.108 174.928 120.598 174.817 120.086 174.71C119.577 174.599 119.066 174.493 118.555 174.393C118.042 174.297 117.528 174.206 117.013 174.121C116.497 174.034 115.98 173.953 115.462 173.877C114.946 173.799 114.429 173.726 113.911 173.659C113.392 173.593 112.872 173.533 112.352 173.478C111.832 173.426 111.312 173.379 110.792 173.338C110.273 173.298 109.753 173.262 109.232 173.233C108.713 173.198 108.193 173.169 107.673 173.145C107.15 173.122 106.628 173.105 106.105 173.092C105.582 173.081 105.059 173.075 104.536 173.075L104.519 173.047Z" fill="#FF5555"/>
</g>
<path d="M104.515 173.047C104.02 173.048 103.524 173.054 103.029 173.066C102.506 173.075 101.983 173.089 101.46 173.109C100.94 173.132 100.421 173.159 99.9013 173.192C99.3781 173.226 98.8553 173.265 98.333 173.31C97.8127 173.353 97.2929 173.402 96.7737 173.456C96.2564 173.508 95.7396 173.565 95.2235 173.628C94.7061 173.695 94.1893 173.768 93.6734 173.846C93.1559 173.919 92.6391 173.998 92.1232 174.082C91.6085 174.17 91.0948 174.264 90.5821 174.363C90.0703 174.461 89.5596 174.563 89.0501 174.671C88.5382 174.778 88.0275 174.89 87.5181 175.007C87.0091 175.126 86.5014 175.25 85.995 175.379C85.4889 175.51 84.9843 175.646 84.4811 175.787C83.9779 175.927 83.4763 176.072 82.9762 176.222C82.476 176.374 81.9773 176.532 81.4804 176.694C80.9861 176.855 80.4936 177.021 80.0028 177.193C79.5084 177.363 79.0158 177.538 78.5251 177.719C78.0367 177.901 77.5501 178.088 77.0656 178.281C76.5801 178.472 76.0966 178.669 75.6152 178.87C75.1326 179.071 74.6521 179.276 74.1738 179.487C73.6972 179.7 73.2227 179.917 72.7506 180.14C72.2769 180.362 71.8055 180.588 71.3365 180.82C70.8717 181.054 70.4094 181.293 69.9496 181.536C69.4847 181.776 69.0223 182.021 68.5625 182.271C68.1065 182.523 67.6533 182.78 67.2027 183.041C66.7497 183.303 66.2994 183.569 65.852 183.839C65.4049 184.11 64.9607 184.385 64.5194 184.664C64.0783 184.944 63.6401 185.228 63.2049 185.517C62.7697 185.805 62.3376 186.098 61.9085 186.396C61.4793 186.694 61.0533 186.996 60.6304 187.303C60.2102 187.607 59.7932 187.915 59.3794 188.228C58.962 188.544 58.548 188.864 58.1374 189.189C57.729 189.514 57.324 189.844 56.9225 190.177C56.5202 190.509 56.1213 190.844 55.726 191.184C55.3295 191.524 54.9367 191.869 54.5475 192.217C54.16 192.567 53.7762 192.92 53.3962 193.278C53.0146 193.637 52.6368 193.999 52.2629 194.366C51.8904 194.731 51.5217 195.1 51.157 195.472C50.7904 195.846 50.4278 196.224 50.0691 196.606C49.7116 196.986 49.358 197.37 49.0085 197.757C48.66 198.143 48.3155 198.533 47.9751 198.927C47.6325 199.322 47.294 199.721 46.9598 200.123C46.6292 200.525 46.3028 200.93 45.9807 201.339C45.656 201.749 45.3357 202.163 45.0197 202.581C44.7041 202.994 44.3928 203.412 44.0859 203.832C43.7792 204.255 43.477 204.681 43.1793 205.11C42.8786 205.539 42.5825 205.972 42.2909 206.407C42.0023 206.842 41.7183 207.28 41.4389 207.722C41.1592 208.163 40.8842 208.607 40.6138 209.054C40.3432 209.499 40.0773 209.946 39.816 210.396C39.5544 210.85 39.2975 211.306 39.0455 211.765C38.7959 212.222 38.5512 212.682 38.3112 213.144C38.0676 213.606 37.8289 214.072 37.5951 214.54C37.3636 215.006 37.1369 215.474 36.9151 215.945C36.6926 216.417 36.475 216.892 36.2624 217.369C36.0488 217.847 35.8403 218.328 35.6369 218.81C35.4354 219.292 35.239 219.775 35.0477 220.261C34.8552 220.746 34.6678 221.232 34.4855 221.721C34.305 222.211 34.1297 222.704 33.9595 223.199C33.7851 223.689 33.6158 224.182 33.4517 224.676C33.2925 225.173 33.1385 225.672 32.9897 226.172C32.8364 226.673 32.6884 227.174 32.5457 227.677C32.4075 228.181 32.2745 228.686 32.1469 229.192C32.0147 229.698 31.8878 230.206 31.7662 230.715C31.649 231.222 31.5372 231.729 31.4306 232.238C31.3225 232.751 31.2198 233.265 31.1226 233.78C31.0235 234.292 30.9297 234.806 30.8414 235.321C30.7545 235.834 30.6728 236.348 30.5966 236.862C30.5217 237.379 30.4522 237.895 30.3881 238.413C30.3221 238.932 30.2616 239.452 30.2065 239.972C30.1495 240.492 30.098 241.012 30.0519 241.532C30.0101 242.051 29.9738 242.571 29.9429 243.091C29.9099 243.614 29.8823 244.137 29.8603 244.66C29.8361 245.18 29.8173 245.699 29.8039 246.219C29.7922 246.742 29.7859 247.265 29.7852 247.788C29.7865 248.284 29.7927 248.779 29.8039 249.275C29.8131 249.798 29.8277 250.321 29.8478 250.844C29.8698 251.367 29.8974 251.89 29.9304 252.412C29.9642 252.932 30.0035 253.452 30.0481 253.972C30.0913 254.492 30.1399 255.012 30.194 255.531C30.246 256.051 30.3034 256.571 30.3662 257.09C30.4334 257.608 30.506 258.125 30.5841 258.641C30.6603 259.156 30.7419 259.669 30.8289 260.182C30.9143 260.697 31.0051 261.211 31.1013 261.724C31.1985 262.239 31.3012 262.752 31.4093 263.265C31.5188 263.774 31.6336 264.282 31.7537 264.788C31.8723 265.298 31.9963 265.805 32.1256 266.312C32.2533 266.818 32.3862 267.323 32.5244 267.826C32.6642 268.329 32.8093 268.831 32.9596 269.331C33.1115 269.831 33.2687 270.33 33.4311 270.827C33.592 271.325 33.7581 271.82 33.9295 272.314C34.0997 272.806 34.275 273.295 34.4554 273.783C34.6377 274.275 34.8251 274.764 35.0177 275.252C35.209 275.738 35.4054 276.221 35.6068 276.703C35.8103 277.182 36.0189 277.66 36.2323 278.135C36.4419 278.612 36.6565 279.087 36.876 279.559C37.0977 280.033 37.3244 280.504 37.556 280.973C37.7898 281.441 38.0285 281.907 38.2721 282.37C38.512 282.832 38.7568 283.291 39.0064 283.748C39.2584 284.207 39.5153 284.663 39.777 285.117C40.0382 285.567 40.3041 286.014 40.5747 286.459C40.845 286.906 41.1201 287.35 41.3997 287.792C41.6791 288.233 41.9632 288.671 42.2518 289.106C42.5403 289.542 42.8335 289.974 43.1311 290.403C43.4289 290.832 43.7311 291.258 44.0378 291.681C44.3446 292.105 44.6559 292.525 44.9716 292.942C45.2846 293.356 45.6018 293.767 45.9234 294.175C46.2485 294.586 46.5779 294.994 46.9116 295.399C47.2428 295.801 47.5783 296.2 47.9178 296.595C48.2612 296.989 48.6087 297.379 48.9602 297.765C49.3097 298.156 49.6633 298.543 50.0209 298.926C50.3765 299.304 50.7361 299.679 51.0995 300.05C51.4643 300.426 51.8329 300.797 52.2055 301.165C52.5794 301.529 52.9572 301.889 53.3387 302.244C53.7188 302.602 54.1026 302.956 54.4901 303.305C54.8763 303.654 55.2661 303.998 55.6595 304.339C56.0548 304.681 56.4536 305.02 56.8561 305.354C57.2575 305.688 57.6625 306.017 58.0709 306.343C58.4814 306.667 58.8954 306.988 59.3127 307.304C59.7295 307.619 60.1495 307.931 60.5728 308.238C60.9927 308.544 61.4158 308.847 61.842 309.144C62.2711 309.442 62.7032 309.735 63.1384 310.024C63.5736 310.313 64.0118 310.597 64.4529 310.876C64.8942 311.156 65.3384 311.431 65.7854 311.701C66.2299 311.972 66.6771 312.238 67.1271 312.499C67.5806 312.761 68.037 313.018 68.4959 313.27C68.9526 313.523 69.412 313.77 69.8739 314.014C70.3368 314.254 70.8021 314.49 71.27 314.721C71.7389 314.952 72.2104 315.179 72.6841 315.401C73.1562 315.623 73.6306 315.841 74.1073 316.054C74.5825 316.267 75.06 316.476 75.5397 316.679C76.0211 316.881 76.5046 317.077 76.9901 317.268C77.4746 317.461 77.9612 317.648 78.4496 317.831C78.9403 318.014 79.4329 318.193 79.9273 318.366C80.4181 318.538 80.9107 318.704 81.4049 318.865C81.9018 319.027 82.4004 319.184 82.9006 319.336C83.4007 319.487 83.9023 319.632 84.4054 319.772C84.9086 319.913 85.4133 320.049 85.9193 320.18C86.4256 320.309 86.9333 320.433 87.4422 320.552C87.9487 320.672 88.4564 320.787 88.9653 320.896C89.4779 321.005 89.9916 321.107 90.5064 321.205C91.0191 321.301 91.5329 321.392 92.0475 321.477C92.5604 321.564 93.0741 321.645 93.5886 321.722C94.1046 321.8 94.6214 321.872 95.1389 321.94C95.658 322.006 96.1777 322.066 96.6981 322.121C97.2173 322.175 97.737 322.224 98.2573 322.267C98.7766 322.312 99.2963 322.351 99.8165 322.385C100.339 322.418 100.862 322.445 101.385 322.467C101.907 322.487 102.43 322.502 102.953 322.511C103.473 322.522 103.993 322.529 104.512 322.529C105.011 322.528 105.509 322.522 106.008 322.511C106.528 322.501 107.048 322.487 107.567 322.467C108.09 322.445 108.613 322.418 109.136 322.385C109.656 322.354 110.175 322.318 110.695 322.276C111.215 322.233 111.735 322.185 112.254 322.131C112.774 322.075 113.294 322.015 113.813 321.949C114.331 321.885 114.847 321.816 115.363 321.741C115.881 321.665 116.398 321.583 116.914 321.496C117.428 321.408 117.942 321.314 118.455 321.215C118.966 321.117 119.477 321.015 119.987 320.906C120.499 320.8 121.009 320.688 121.519 320.571C122.025 320.452 122.529 320.328 123.033 320.199C123.539 320.068 124.043 319.932 124.547 319.79C125.05 319.651 125.551 319.505 126.051 319.355C126.552 319.206 127.05 319.052 127.547 318.892C128.045 318.731 128.54 318.565 129.034 318.394C129.525 318.22 130.015 318.042 130.502 317.858C130.994 317.676 131.484 317.489 131.971 317.296C132.457 317.105 132.94 316.908 133.422 316.707C133.901 316.506 134.379 316.301 134.854 316.09C135.331 315.877 135.805 315.66 136.277 315.437C136.751 315.215 137.222 314.989 137.691 314.757C138.159 314.526 138.625 314.29 139.087 314.05C139.549 313.807 140.009 313.559 140.465 313.306C140.924 313.054 141.381 312.797 141.834 312.536C142.287 312.277 142.738 312.014 143.185 311.747C143.629 311.476 144.07 311.201 144.509 310.921C144.95 310.642 145.388 310.358 145.823 310.069C146.258 309.781 146.691 309.487 147.12 309.19C147.549 308.892 147.975 308.59 148.398 308.283C148.821 307.976 149.241 307.665 149.658 307.349C150.075 307.033 150.489 306.712 150.9 306.388C151.308 306.063 151.713 305.733 152.115 305.4C152.517 305.068 152.916 304.733 153.311 304.393C153.705 304.053 154.094 303.708 154.481 303.359C154.871 303.01 155.258 302.656 155.641 302.299C156.019 301.94 156.394 301.577 156.765 301.211C157.141 300.846 157.512 300.477 157.88 300.104C158.244 299.733 158.603 299.359 158.959 298.98C159.316 298.6 159.67 298.216 160.019 297.829C160.371 297.439 160.719 297.046 161.062 296.65C161.402 296.254 161.737 295.855 162.068 295.453C162.402 295.051 162.731 294.646 163.056 294.238C163.381 293.827 163.701 293.413 164.017 292.996C164.333 292.582 164.644 292.165 164.951 291.745C165.258 291.322 165.56 290.895 165.858 290.466C166.155 290.037 166.449 289.605 166.737 289.17C167.026 288.734 167.31 288.296 167.589 287.855C167.869 287.416 168.144 286.975 168.414 286.531C168.685 286.084 168.951 285.633 169.212 285.18C169.474 284.726 169.731 284.27 169.983 283.811C170.235 283.354 170.483 282.895 170.726 282.433C170.967 281.97 171.202 281.504 171.433 281.036C171.668 280.57 171.897 280.102 172.122 279.631C172.345 279.159 172.562 278.684 172.775 278.208C172.986 277.729 173.191 277.249 173.392 276.766C173.596 276.284 173.795 275.801 173.99 275.315C174.179 274.83 174.364 274.344 174.543 273.855C174.726 273.368 174.905 272.878 175.078 272.386C175.249 271.893 175.415 271.397 175.576 270.899C175.739 270.402 175.896 269.904 176.048 269.403C176.198 268.903 176.343 268.401 176.483 267.898C176.624 267.395 176.76 266.89 176.891 266.384C177.02 265.881 177.144 265.376 177.263 264.87C177.383 264.36 177.498 263.85 177.607 263.338C177.715 262.828 177.818 262.317 177.915 261.805C178.014 261.293 178.108 260.779 178.196 260.264C178.284 259.748 178.365 259.231 178.441 258.713C178.516 258.197 178.586 257.68 178.65 257.163C178.716 256.644 178.776 256.124 178.831 255.603C178.885 255.084 178.934 254.564 178.977 254.044C179.022 253.525 179.061 253.005 179.095 252.485C179.128 251.965 179.155 251.445 179.178 250.925C179.198 250.402 179.212 249.88 179.221 249.357C179.233 248.834 179.239 248.311 179.24 247.788C179.239 247.292 179.233 246.797 179.221 246.301C179.212 245.778 179.198 245.255 179.178 244.732C179.155 244.212 179.128 243.692 179.095 243.173C179.064 242.65 179.028 242.127 178.986 241.604C178.943 241.084 178.894 240.564 178.84 240.045C178.785 239.527 178.724 239.011 178.659 238.494C178.595 237.974 178.525 237.454 178.45 236.935C178.374 236.42 178.292 235.906 178.205 235.393C178.117 234.879 178.023 234.365 177.924 233.852C177.827 233.337 177.724 232.823 177.616 232.311C177.509 231.802 177.398 231.294 177.28 230.787C177.162 230.278 177.038 229.771 176.909 229.264C176.778 228.758 176.642 228.253 176.5 227.75C176.361 227.247 176.215 226.745 176.065 226.245C175.916 225.745 175.762 225.246 175.603 224.749C175.442 224.254 175.276 223.762 175.105 223.271C174.932 222.776 174.753 222.284 174.57 221.793C174.391 221.304 174.206 220.818 174.017 220.333C173.823 219.848 173.624 219.364 173.419 218.883C173.219 218.4 173.013 217.919 172.802 217.441C172.59 216.964 172.372 216.489 172.15 216.017C171.928 215.543 171.701 215.072 171.47 214.603C171.239 214.135 171.003 213.669 170.763 213.206C170.52 212.744 170.272 212.285 170.019 211.828C169.77 211.372 169.516 210.919 169.258 210.468C168.997 210.015 168.731 209.565 168.46 209.117C168.19 208.67 167.915 208.226 167.635 207.784C167.356 207.343 167.072 206.905 166.783 206.47C166.494 206.034 166.201 205.602 165.904 205.173C165.606 204.744 165.304 204.318 164.997 203.895C164.69 203.471 164.379 203.051 164.063 202.634C163.747 202.22 163.427 201.809 163.102 201.401C162.777 200.993 162.448 200.588 162.114 200.186C161.783 199.784 161.447 199.385 161.108 198.989C160.767 198.593 160.423 198.2 160.074 197.811C159.725 197.423 159.371 197.039 159.014 196.659C158.658 196.278 158.298 195.9 157.935 195.526C157.567 195.153 157.195 194.784 156.82 194.42C156.449 194.053 156.074 193.69 155.696 193.332C155.316 192.974 154.932 192.62 154.544 192.271C154.155 191.922 153.762 191.578 153.366 191.237C152.971 190.895 152.572 190.556 152.169 190.222C151.768 189.888 151.363 189.559 150.954 189.233C150.547 188.912 150.136 188.594 149.721 188.281C149.305 187.963 148.885 187.648 148.461 187.338C148.038 187.032 147.612 186.729 147.183 186.432C146.754 186.134 146.322 185.841 145.887 185.552C145.455 185.263 145.019 184.979 144.581 184.7C144.14 184.42 143.696 184.145 143.249 183.875C142.801 183.604 142.351 183.338 141.898 183.077C141.447 182.815 140.994 182.558 140.538 182.306C140.078 182.053 139.616 181.806 139.151 181.563C138.691 181.322 138.229 181.086 137.764 180.856C137.295 180.624 136.824 180.397 136.35 180.175C135.878 179.953 135.403 179.735 134.927 179.523C134.449 179.309 133.968 179.1 133.485 178.897C133.007 178.696 132.526 178.499 132.044 178.308C131.556 178.115 131.067 177.928 130.575 177.745C130.088 177.562 129.598 177.384 129.107 177.211C128.613 177.039 128.117 176.873 127.62 176.712C127.123 176.553 126.624 176.399 126.124 176.25C125.624 176.097 125.122 175.949 124.619 175.806C124.116 175.668 123.611 175.535 123.105 175.407C122.602 175.275 122.097 175.148 121.591 175.026C121.082 174.909 120.571 174.797 120.059 174.691C119.55 174.579 119.039 174.474 118.527 174.373C118.015 174.277 117.501 174.187 116.986 174.101C116.47 174.014 115.954 173.933 115.436 173.856C114.92 173.778 114.403 173.706 113.886 173.639C113.367 173.573 112.847 173.512 112.327 173.457C111.808 173.403 111.288 173.354 110.768 173.311C110.248 173.269 109.728 173.233 109.208 173.202C108.689 173.166 108.169 173.136 107.649 173.111C107.127 173.091 106.604 173.076 106.081 173.067C105.558 173.055 105.038 173.048 104.515 173.047Z" fill="#FF8080"/>
<path d="M104.51 322.522C145.78 322.522 179.235 289.061 179.235 247.784C179.235 206.508 145.78 173.047 104.51 173.047C63.2407 173.047 29.7852 206.508 29.7852 247.784C29.7852 289.061 63.2407 322.522 104.51 322.522Z" fill="#FF8080"/>
<g style="mix-blend-mode:darken" filter="url(#filter2_f_164_2)">
<path d="M296.706 173.242C296.21 173.243 295.714 173.249 295.219 173.26C294.696 173.272 294.173 173.289 293.65 173.312C293.13 173.336 292.61 173.365 292.091 173.4C291.568 173.436 291.045 173.476 290.522 173.523C290.002 173.564 289.482 173.611 288.963 173.663C288.445 173.716 287.928 173.775 287.412 173.839C286.894 173.906 286.378 173.978 285.861 174.056C285.344 174.129 284.827 174.208 284.311 174.291C283.796 174.38 283.282 174.473 282.769 174.572C282.257 174.67 281.747 174.773 281.237 174.881C280.725 174.987 280.215 175.099 279.706 175.216C279.197 175.335 278.689 175.459 278.183 175.588C277.677 175.718 277.172 175.854 276.669 175.995C276.166 176.135 275.664 176.28 275.164 176.43C274.663 176.582 274.165 176.74 273.667 176.902C273.173 177.063 272.681 177.229 272.19 177.4C271.696 177.571 271.204 177.746 270.713 177.927C270.225 178.109 269.738 178.296 269.254 178.488C268.768 178.68 268.284 178.876 267.803 179.078C267.32 179.278 266.839 179.483 266.361 179.694C265.884 179.906 265.41 180.124 264.938 180.346C264.465 180.568 263.993 180.794 263.524 181.025C263.059 181.259 262.597 181.498 262.137 181.741C261.672 181.981 261.209 182.227 260.749 182.476C260.293 182.728 259.84 182.985 259.389 183.247C258.936 183.508 258.486 183.774 258.039 184.045C257.591 184.315 257.147 184.59 256.705 184.87C256.264 185.149 255.826 185.434 255.391 185.722C254.956 186.011 254.524 186.304 254.095 186.601C253.666 186.899 253.239 187.202 252.816 187.509C252.396 187.812 251.979 188.121 251.565 188.433C251.148 188.749 250.734 189.07 250.323 189.395C249.915 189.72 249.511 190.049 249.109 190.383C248.707 190.714 248.308 191.05 247.913 191.39C247.516 191.73 247.123 192.074 246.734 192.423C246.347 192.773 245.963 193.127 245.583 193.485C245.202 193.843 244.824 194.206 244.45 194.572C244.078 194.937 243.709 195.305 243.345 195.678C242.978 196.052 242.616 196.43 242.257 196.811C241.899 197.191 241.546 197.575 241.196 197.962C240.847 198.349 240.503 198.739 240.163 199.133C239.82 199.528 239.481 199.927 239.147 200.329C238.816 200.731 238.49 201.136 238.168 201.545C237.843 201.956 237.523 202.37 237.207 202.787C236.891 203.201 236.58 203.618 236.273 204.038C235.967 204.461 235.664 204.888 235.367 205.317C235.066 205.746 234.77 206.179 234.479 206.614C234.19 207.049 233.906 207.487 233.626 207.928C233.347 208.37 233.072 208.814 232.802 209.262C232.531 209.706 232.265 210.154 232.004 210.604C231.742 211.057 231.485 211.514 231.233 211.972C230.984 212.43 230.739 212.889 230.498 213.352C230.255 213.815 230.016 214.28 229.783 214.748C229.551 215.214 229.324 215.683 229.102 216.154C228.88 216.626 228.662 217.1 228.449 217.577C228.236 218.055 228.027 218.536 227.823 219.019C227.622 219.5 227.425 219.984 227.234 220.47C227.042 220.954 226.854 221.441 226.672 221.93C226.492 222.42 226.316 222.913 226.146 223.407C225.972 223.898 225.803 224.39 225.639 224.884C225.479 225.382 225.325 225.88 225.176 226.381C225.023 226.881 224.875 227.383 224.732 227.886C224.594 228.39 224.461 228.894 224.334 229.401C224.202 229.907 224.075 230.415 223.953 230.923C223.836 231.43 223.725 231.938 223.618 232.446C223.51 232.959 223.407 233.474 223.309 233.989C223.21 234.502 223.117 235.016 223.029 235.531C222.942 236.044 222.861 236.558 222.785 237.073C222.71 237.589 222.64 238.107 222.576 238.624C222.51 239.144 222.449 239.664 222.394 240.184C222.336 240.703 222.283 241.223 222.236 241.744C222.195 242.263 222.16 242.783 222.131 243.304C222.096 243.826 222.067 244.349 222.043 244.872C222.02 245.392 222.002 245.912 221.99 246.432C221.979 246.955 221.973 247.478 221.973 248.001C221.974 248.497 221.979 248.993 221.99 249.489C222.002 250.012 222.02 250.534 222.043 251.057C222.067 251.58 222.096 252.103 222.131 252.626C222.166 253.146 222.207 253.666 222.253 254.185C222.295 254.706 222.341 255.226 222.394 255.745C222.447 256.266 222.505 256.786 222.569 257.305C222.636 257.823 222.709 258.34 222.787 258.856C222.863 259.371 222.944 259.885 223.03 260.398C223.116 260.913 223.206 261.428 223.302 261.941C223.4 262.455 223.503 262.969 223.611 263.481C223.72 263.99 223.835 264.498 223.955 265.004C224.074 265.513 224.198 266.021 224.327 266.527C224.454 267.033 224.587 267.538 224.725 268.041C224.865 268.545 225.01 269.047 225.16 269.547C225.312 270.047 225.47 270.546 225.632 271.043C225.793 271.541 225.959 272.037 226.13 272.531C226.301 273.023 226.476 273.512 226.657 274C226.839 274.491 227.026 274.981 227.218 275.468C227.409 275.954 227.606 276.438 227.807 276.919C228.011 277.399 228.22 277.877 228.434 278.353C228.643 278.829 228.858 279.304 229.077 279.776C229.299 280.25 229.526 280.721 229.758 281.19C229.992 281.658 230.23 282.124 230.474 282.587C230.714 283.048 230.959 283.508 231.209 283.964C231.461 284.423 231.718 284.879 231.979 285.333C232.24 285.783 232.506 286.23 232.777 286.675C233.047 287.122 233.322 287.567 233.602 288.008C233.881 288.449 234.166 288.887 234.454 289.322C234.743 289.758 235.036 290.19 235.333 290.619C235.631 291.049 235.933 291.475 236.24 291.898C236.547 292.321 236.858 292.741 237.173 293.158C237.487 293.572 237.804 293.984 238.126 294.391C238.451 294.803 238.78 295.211 239.114 295.616C239.445 296.019 239.781 296.417 240.121 296.813C240.464 297.206 240.811 297.597 241.163 297.983C241.512 298.373 241.866 298.76 242.224 299.143C242.58 299.521 242.939 299.896 243.303 300.267C243.668 300.643 244.037 301.015 244.41 301.383C244.784 301.747 245.161 302.107 245.543 302.462C245.923 302.82 246.307 303.174 246.694 303.524C247.08 303.872 247.47 304.217 247.864 304.557C248.259 304.9 248.658 305.239 249.06 305.573C249.462 305.907 249.866 306.236 250.274 306.561C250.685 306.886 251.099 307.206 251.516 307.523C251.933 307.838 252.353 308.149 252.776 308.456C253.196 308.763 253.619 309.065 254.046 309.363C254.475 309.661 254.907 309.954 255.342 310.242C255.777 310.531 256.215 310.815 256.656 311.095C257.098 311.374 257.542 311.649 257.99 311.92C258.434 312.19 258.881 312.456 259.332 312.718C259.785 312.979 260.241 313.236 260.7 313.488C261.156 313.741 261.615 313.989 262.077 314.232C262.54 314.473 263.005 314.708 263.473 314.939C263.942 315.171 264.414 315.398 264.887 315.62C265.359 315.842 265.834 316.06 266.31 316.273C266.785 316.486 267.262 316.695 267.742 316.899C268.223 317.101 268.707 317.297 269.192 317.489C269.677 317.681 270.163 317.868 270.652 318.05C271.142 318.233 271.635 318.412 272.129 318.585C272.62 318.756 273.112 318.922 273.606 319.083C274.103 319.246 274.602 319.403 275.102 319.555C275.603 319.706 276.104 319.851 276.608 319.991C277.111 320.132 277.615 320.268 278.122 320.399C278.628 320.529 279.135 320.653 279.644 320.771C280.151 320.891 280.658 321.006 281.167 321.115C281.68 321.223 282.194 321.326 282.709 321.424C283.222 321.52 283.736 321.611 284.251 321.696C284.764 321.783 285.278 321.865 285.793 321.942C286.309 322.02 286.826 322.092 287.344 322.159C287.863 322.225 288.383 322.285 288.903 322.34C289.423 322.392 289.942 322.439 290.463 322.48C290.982 322.527 291.502 322.568 292.022 322.603C292.545 322.638 293.068 322.667 293.591 322.691C294.113 322.714 294.636 322.731 295.159 322.743C295.679 322.755 296.199 322.761 296.719 322.761C297.217 322.76 297.716 322.754 298.215 322.743C298.735 322.731 299.255 322.714 299.774 322.691C300.298 322.667 300.82 322.638 301.343 322.603C301.863 322.573 302.383 322.538 302.902 322.498C303.423 322.456 303.943 322.41 304.462 322.357C304.982 322.303 305.502 322.242 306.021 322.177C306.539 322.112 307.056 322.043 307.572 321.968C308.09 321.892 308.607 321.81 309.123 321.722C309.638 321.634 310.152 321.54 310.665 321.441C311.177 321.344 311.687 321.241 312.196 321.133C312.708 321.026 313.219 320.915 313.728 320.798C314.234 320.679 314.738 320.555 315.242 320.426C315.748 320.295 316.253 320.158 316.756 320.017C317.259 319.877 317.761 319.732 318.261 319.582C318.761 319.433 319.26 319.278 319.757 319.118C320.255 318.958 320.751 318.791 321.245 318.62C321.736 318.447 322.226 318.268 322.713 318.085C323.205 317.903 323.694 317.716 324.182 317.524C324.667 317.332 325.151 317.136 325.632 316.934C326.112 316.734 326.589 316.528 327.064 316.318C327.54 316.106 328.015 315.888 328.487 315.665C328.96 315.443 329.432 315.217 329.901 314.985C330.368 314.754 330.834 314.518 331.297 314.278C331.759 314.035 332.218 313.786 332.674 313.534C333.133 313.282 333.589 313.025 334.042 312.763C334.495 312.505 334.946 312.242 335.393 311.974C335.837 311.704 336.278 311.429 336.716 311.149C337.157 310.87 337.595 310.585 338.03 310.296C338.465 310.008 338.897 309.715 339.326 309.418C339.756 309.12 340.182 308.817 340.605 308.51C341.028 308.204 341.448 307.892 341.865 307.577C342.282 307.261 342.696 306.94 343.107 306.616C343.515 306.29 343.919 305.961 344.321 305.628C344.723 305.296 345.122 304.96 345.517 304.621C345.911 304.28 346.301 303.936 346.687 303.587C347.077 303.237 347.464 302.883 347.847 302.526C348.225 302.167 348.6 301.804 348.971 301.438C349.347 301.073 349.719 300.705 350.087 300.332C350.45 299.961 350.81 299.586 351.166 299.208C351.524 298.828 351.877 298.444 352.227 298.057C352.579 297.667 352.926 297.274 353.269 296.878C353.609 296.482 353.945 296.083 354.276 295.681C354.61 295.279 354.939 294.874 355.264 294.465C355.589 294.054 355.909 293.64 356.225 293.223C356.54 292.809 356.852 292.392 357.158 291.972C357.465 291.549 357.767 291.122 358.065 290.693C358.363 290.264 358.656 289.831 358.944 289.396C359.233 288.961 359.517 288.523 359.797 288.082C360.076 287.643 360.351 287.202 360.621 286.757C360.892 286.31 361.158 285.859 361.419 285.406C361.681 284.953 361.938 284.497 362.19 284.038C362.442 283.581 362.69 283.121 362.933 282.659C363.174 282.196 363.41 281.73 363.64 281.262C363.875 280.796 364.105 280.327 364.33 279.857C364.552 279.385 364.77 278.91 364.982 278.434C365.193 277.955 365.398 277.474 365.598 276.991C365.803 276.51 366.002 276.026 366.196 275.54C366.386 275.056 366.57 274.569 366.749 274.081C366.932 273.593 367.111 273.103 367.284 272.612C367.455 272.118 367.621 271.622 367.782 271.124C367.945 270.627 368.102 270.128 368.254 269.627C368.404 269.127 368.549 268.625 368.689 268.122C368.831 267.619 368.967 267.114 369.098 266.608C369.227 266.104 369.351 265.6 369.47 265.094C369.59 264.584 369.704 264.074 369.814 263.562C369.922 263.052 370.025 262.542 370.122 262.03C370.221 261.517 370.315 261.003 370.403 260.488C370.49 259.972 370.571 259.455 370.647 258.937C370.722 258.421 370.791 257.904 370.856 257.386C370.921 256.867 370.982 256.347 371.036 255.826C371.089 255.307 371.135 254.787 371.177 254.266C371.223 253.747 371.264 253.227 371.3 252.706C371.334 252.187 371.363 251.667 371.387 251.147C371.41 250.624 371.428 250.101 371.44 249.578C371.451 249.055 371.457 248.532 371.457 248.009C371.456 247.513 371.451 247.017 371.44 246.522C371.428 245.999 371.41 245.476 371.387 244.953C371.363 244.433 371.334 243.913 371.3 243.393C371.27 242.87 371.235 242.347 371.194 241.825C371.153 241.304 371.106 240.784 371.054 240.265C370.999 239.747 370.939 239.23 370.873 238.714C370.809 238.193 370.74 237.673 370.664 237.154C370.589 236.639 370.507 236.125 370.421 235.612C370.332 235.097 370.239 234.582 370.14 234.069C370.042 233.554 369.939 233.04 369.831 232.527C369.725 232.018 369.613 231.511 369.496 231.004C369.377 230.495 369.254 229.988 369.124 229.481C368.993 228.975 368.857 228.47 368.715 227.967C368.576 227.464 368.431 226.962 368.28 226.462C368.131 225.961 367.977 225.462 367.817 224.965C367.656 224.471 367.49 223.978 367.319 223.488C367.146 222.993 366.968 222.501 366.784 222.01C366.605 221.522 366.421 221.035 366.231 220.55C366.037 220.065 365.838 219.581 365.633 219.099C365.433 218.617 365.228 218.136 365.017 217.657C364.805 217.181 364.587 216.706 364.365 216.234C364.144 215.761 363.917 215.289 363.686 214.82C363.455 214.352 363.22 213.886 362.979 213.423C362.736 212.962 362.488 212.503 362.235 212.046C361.986 211.59 361.732 211.137 361.474 210.686C361.213 210.233 360.946 209.783 360.676 209.335C360.405 208.888 360.131 208.443 359.851 208.002C359.572 207.561 359.287 207.123 358.999 206.688C358.71 206.252 358.417 205.82 358.12 205.391C357.822 204.962 357.52 204.535 357.213 204.112C356.906 203.689 356.595 203.269 356.279 202.852C355.963 202.438 355.643 202.027 355.318 201.619C354.993 201.21 354.664 200.805 354.33 200.403C353.999 200 353.663 199.602 353.324 199.206C352.983 198.81 352.639 198.417 352.29 198.027C351.94 197.64 351.587 197.256 351.229 196.876C350.873 196.495 350.514 196.117 350.15 195.743C349.782 195.37 349.41 195.001 349.034 194.636C348.663 194.269 348.288 193.906 347.91 193.548C347.53 193.19 347.146 192.836 346.759 192.486C346.37 192.138 345.977 191.793 345.58 191.453C345.185 191.11 344.786 190.771 344.384 190.437C343.983 190.103 343.578 189.774 343.17 189.449C342.762 189.127 342.351 188.81 341.937 188.496C341.52 188.178 341.1 187.864 340.677 187.554C340.254 187.247 339.828 186.945 339.398 186.647C338.969 186.35 338.537 186.056 338.102 185.768C337.67 185.479 337.235 185.195 336.797 184.915C336.355 184.636 335.911 184.361 335.463 184.091C335.016 183.82 334.566 183.554 334.113 183.292C333.662 183.031 333.209 182.774 332.753 182.522C332.293 182.269 331.83 182.021 331.365 181.778C330.905 181.538 330.443 181.302 329.978 181.071C329.509 180.839 329.037 180.612 328.564 180.39C328.092 180.168 327.618 179.95 327.141 179.738C326.663 179.524 326.182 179.315 325.699 179.111C325.22 178.91 324.74 178.713 324.257 178.522C323.77 178.329 323.28 178.142 322.789 177.96C322.301 177.777 321.812 177.598 321.32 177.425C320.827 177.254 320.332 177.088 319.835 176.927C319.337 176.767 318.839 176.613 318.338 176.464C317.838 176.31 317.336 176.162 316.833 176.02C316.33 175.882 315.825 175.749 315.319 175.621C314.816 175.489 314.311 175.362 313.805 175.241C313.296 175.124 312.785 175.012 312.274 174.905C311.764 174.794 311.254 174.688 310.742 174.588C310.229 174.492 309.715 174.401 309.2 174.316C308.684 174.229 308.167 174.148 307.649 174.072C307.133 173.994 306.616 173.922 306.099 173.854C305.579 173.789 305.06 173.729 304.539 173.674C304.02 173.622 303.5 173.575 302.98 173.533C302.46 173.493 301.94 173.458 301.42 173.428C300.9 173.393 300.381 173.364 299.86 173.34C299.338 173.317 298.815 173.3 298.292 173.288C297.769 173.276 297.247 173.271 296.724 173.27L296.706 173.242Z" fill="#FF5555"/>
</g>
<path d="M296.703 173.047C296.207 173.048 295.712 173.054 295.216 173.066C294.693 173.075 294.171 173.089 293.648 173.109C293.128 173.132 292.608 173.159 292.089 173.192C291.566 173.226 291.043 173.265 290.52 173.31C290 173.353 289.48 173.402 288.961 173.456C288.444 173.508 287.927 173.565 287.411 173.628C286.894 173.695 286.377 173.768 285.861 173.846C285.343 173.919 284.827 173.998 284.311 174.082C283.796 174.17 283.282 174.264 282.77 174.363C282.258 174.461 281.747 174.563 281.238 174.671C280.726 174.778 280.215 174.89 279.706 175.007C279.197 175.126 278.689 175.25 278.182 175.379C277.676 175.51 277.172 175.646 276.669 175.787C276.165 175.927 275.664 176.072 275.164 176.222C274.663 176.374 274.165 176.532 273.668 176.694C273.174 176.855 272.681 177.021 272.19 177.193C271.696 177.363 271.203 177.538 270.713 177.719C270.224 177.901 269.738 178.088 269.253 178.281C268.768 178.472 268.284 178.669 267.803 178.87C267.32 179.071 266.84 179.276 266.361 179.487C265.885 179.7 265.41 179.917 264.938 180.14C264.464 180.362 263.993 180.588 263.524 180.82C263.059 181.054 262.597 181.293 262.137 181.536C261.672 181.776 261.21 182.021 260.75 182.271C260.294 182.523 259.841 182.78 259.39 183.041C258.937 183.303 258.487 183.569 258.039 183.839C257.592 184.11 257.148 184.385 256.707 184.664C256.266 184.944 255.828 185.228 255.392 185.517C254.957 185.805 254.525 186.098 254.096 186.396C253.667 186.694 253.241 186.996 252.818 187.303C252.398 187.607 251.981 187.915 251.567 188.228C251.15 188.544 250.736 188.864 250.325 189.189C249.917 189.514 249.512 189.844 249.11 190.177C248.708 190.509 248.309 190.844 247.913 191.184C247.517 191.524 247.124 191.869 246.735 192.217C246.348 192.567 245.964 192.92 245.584 193.278C245.202 193.637 244.824 193.999 244.45 194.366C244.078 194.731 243.709 195.1 243.344 195.472C242.978 195.846 242.615 196.224 242.257 196.606C241.899 196.986 241.546 197.37 241.196 197.757C240.847 198.143 240.503 198.533 240.163 198.927C239.82 199.322 239.481 199.721 239.147 200.123C238.817 200.525 238.49 200.93 238.168 201.339C237.844 201.749 237.523 202.163 237.207 202.581C236.892 202.994 236.58 203.412 236.273 203.832C235.967 204.255 235.665 204.681 235.367 205.11C235.066 205.539 234.77 205.972 234.478 206.407C234.19 206.842 233.906 207.28 233.626 207.722C233.347 208.163 233.072 208.607 232.801 209.054C232.531 209.499 232.265 209.946 232.004 210.396C231.742 210.85 231.485 211.306 231.233 211.765C230.983 212.222 230.739 212.682 230.499 213.144C230.255 213.606 230.016 214.072 229.783 214.54C229.551 215.006 229.324 215.474 229.103 215.945C228.88 216.417 228.662 216.892 228.45 217.369C228.236 217.847 228.028 218.328 227.824 218.81C227.623 219.292 227.427 219.775 227.235 220.261C227.043 220.746 226.855 221.232 226.673 221.721C226.492 222.211 226.317 222.704 226.147 223.199C225.973 223.689 225.803 224.182 225.639 224.676C225.48 225.173 225.326 225.672 225.177 226.172C225.024 226.673 224.876 227.174 224.733 227.677C224.595 228.181 224.462 228.686 224.334 229.192C224.202 229.698 224.075 230.206 223.954 230.715C223.837 231.222 223.725 231.729 223.618 232.238C223.51 232.751 223.407 233.265 223.31 233.78C223.211 234.292 223.117 234.806 223.029 235.321C222.942 235.834 222.86 236.348 222.784 236.862C222.709 237.379 222.64 237.895 222.576 238.413C222.51 238.932 222.449 239.452 222.394 239.972C222.337 240.492 222.285 241.012 222.239 241.532C222.198 242.051 222.161 242.571 222.13 243.091C222.097 243.614 222.07 244.137 222.048 244.66C222.024 245.18 222.005 245.699 221.991 246.219C221.98 246.742 221.973 247.265 221.973 247.788C221.974 248.284 221.98 248.779 221.991 249.275C222.001 249.798 222.015 250.321 222.035 250.844C222.057 251.367 222.085 251.89 222.118 252.412C222.152 252.932 222.191 253.452 222.236 253.972C222.279 254.492 222.327 255.012 222.382 255.531C222.433 256.051 222.491 256.571 222.554 257.09C222.621 257.608 222.694 258.125 222.772 258.641C222.848 259.156 222.929 259.669 223.016 260.182C223.102 260.697 223.193 261.211 223.289 261.724C223.386 262.239 223.489 262.752 223.597 263.265C223.706 263.774 223.821 264.282 223.941 264.788C224.06 265.298 224.184 265.805 224.313 266.312C224.441 266.818 224.574 267.323 224.712 267.826C224.852 268.329 224.997 268.831 225.147 269.331C225.299 269.831 225.456 270.33 225.619 270.827C225.779 271.325 225.946 271.82 226.117 272.314C226.287 272.806 226.462 273.295 226.643 273.783C226.825 274.275 227.013 274.764 227.205 275.252C227.396 275.738 227.593 276.221 227.794 276.703C227.998 277.182 228.206 277.66 228.42 278.135C228.629 278.612 228.844 279.087 229.063 279.559C229.285 280.033 229.512 280.504 229.743 280.973C229.977 281.441 230.216 281.907 230.46 282.37C230.7 282.832 230.944 283.291 231.194 283.748C231.446 284.207 231.703 284.663 231.965 285.117C232.226 285.567 232.492 286.014 232.762 286.459C233.033 286.906 233.308 287.35 233.587 287.792C233.867 288.233 234.151 288.671 234.439 289.106C234.728 289.542 235.021 289.974 235.319 290.403C235.616 290.832 235.919 291.258 236.225 291.681C236.532 292.105 236.843 292.525 237.159 292.942C237.472 293.356 237.789 293.767 238.111 294.175C238.436 294.586 238.765 294.994 239.099 295.399C239.43 295.801 239.766 296.2 240.105 296.595C240.449 296.989 240.796 297.379 241.148 297.765C241.497 298.156 241.851 298.543 242.208 298.926C242.564 299.304 242.924 299.679 243.287 300.05C243.652 300.426 244.02 300.797 244.393 301.165C244.767 301.529 245.145 301.889 245.526 302.244C245.906 302.602 246.29 302.956 246.678 303.305C247.064 303.654 247.454 303.998 247.847 304.339C248.242 304.681 248.641 305.02 249.044 305.354C249.445 305.688 249.85 306.017 250.258 306.343C250.669 306.667 251.083 306.988 251.5 307.304C251.917 307.619 252.337 307.931 252.76 308.238C253.18 308.544 253.603 308.847 254.029 309.144C254.459 309.442 254.891 309.735 255.326 310.024C255.761 310.313 256.199 310.597 256.64 310.876C257.082 311.156 257.526 311.431 257.973 311.701C258.417 311.972 258.865 312.238 259.315 312.499C259.768 312.761 260.224 313.018 260.683 313.27C261.14 313.523 261.599 313.77 262.061 314.014C262.524 314.254 262.99 314.49 263.457 314.721C263.926 314.952 264.398 315.179 264.872 315.401C265.344 315.623 265.818 315.841 266.295 316.054C266.77 316.267 267.248 316.476 267.727 316.679C268.209 316.881 268.692 317.077 269.178 317.268C269.662 317.461 270.149 317.648 270.637 317.831C271.128 318.014 271.62 318.193 272.115 318.366C272.606 318.538 273.098 318.704 273.592 318.865C274.089 319.027 274.588 319.184 275.088 319.336C275.588 319.487 276.09 319.632 276.593 319.772C277.096 319.913 277.601 320.049 278.107 320.18C278.613 320.309 279.121 320.433 279.63 320.552C280.136 320.672 280.644 320.787 281.153 320.896C281.665 321.005 282.179 321.107 282.694 321.205C283.207 321.301 283.72 321.392 284.235 321.477C284.748 321.564 285.262 321.645 285.776 321.722C286.292 321.8 286.809 321.872 287.326 321.94C287.845 322.006 288.365 322.066 288.886 322.121C289.405 322.175 289.925 322.224 290.445 322.267C290.964 322.312 291.484 322.351 292.004 322.385C292.526 322.418 293.049 322.445 293.572 322.467C294.095 322.487 294.618 322.502 295.141 322.511C295.66 322.522 296.18 322.529 296.7 322.529C297.198 322.528 297.697 322.522 298.195 322.511C298.715 322.501 299.235 322.487 299.755 322.467C300.278 322.445 300.801 322.418 301.323 322.385C301.843 322.354 302.363 322.318 302.882 322.276C303.402 322.233 303.922 322.185 304.441 322.131C304.962 322.075 305.481 322.015 306.001 321.949C306.518 321.885 307.035 321.816 307.551 321.741C308.068 321.665 308.585 321.583 309.101 321.496C309.616 321.408 310.129 321.314 310.642 321.215C311.154 321.117 311.665 321.015 312.174 320.906C312.686 320.8 313.197 320.688 313.706 320.571C314.212 320.452 314.717 320.328 315.22 320.199C315.726 320.068 316.231 319.932 316.734 319.79C317.237 319.651 317.739 319.505 318.239 319.355C318.739 319.206 319.238 319.052 319.735 318.892C320.232 318.731 320.728 318.565 321.221 318.394C321.713 318.22 322.202 318.042 322.69 317.858C323.181 317.676 323.671 317.489 324.159 317.296C324.644 317.105 325.128 316.908 325.609 316.707C326.089 316.506 326.566 316.301 327.041 316.09C327.518 315.877 327.993 315.66 328.465 315.437C328.938 315.215 329.41 314.989 329.879 314.757C330.347 314.526 330.812 314.29 331.275 314.05C331.737 313.807 332.196 313.559 332.653 313.306C333.112 313.054 333.568 312.797 334.022 312.536C334.475 312.277 334.925 312.014 335.373 311.747C335.817 311.476 336.258 311.201 336.696 310.921C337.137 310.642 337.576 310.358 338.011 310.069C338.446 309.781 338.878 309.487 339.307 309.19C339.736 308.892 340.162 308.59 340.585 308.283C341.009 307.976 341.429 307.665 341.845 307.349C342.263 307.033 342.677 306.712 343.087 306.388C343.496 306.063 343.901 305.733 344.302 305.4C344.704 305.068 345.103 304.733 345.499 304.393C345.892 304.053 346.282 303.708 346.668 303.359C347.059 303.01 347.445 302.656 347.828 302.299C348.207 301.94 348.582 301.577 348.953 301.211C349.328 300.846 349.7 300.477 350.068 300.104C350.431 299.733 350.791 299.359 351.146 298.98C351.504 298.6 351.857 298.216 352.207 297.829C352.559 297.439 352.906 297.046 353.25 296.65C353.589 296.254 353.925 295.855 354.256 295.453C354.589 295.051 354.919 294.646 355.244 294.238C355.569 293.827 355.889 293.413 356.205 292.996C356.521 292.582 356.832 292.165 357.139 291.745C357.445 291.322 357.748 290.895 358.045 290.466C358.343 290.037 358.636 289.605 358.925 289.17C359.213 288.734 359.497 288.296 359.777 287.855C360.057 287.416 360.331 286.975 360.602 286.531C360.872 286.084 361.138 285.633 361.4 285.18C361.661 284.726 361.918 284.27 362.17 283.811C362.423 283.354 362.671 282.895 362.914 282.433C363.154 281.97 363.39 281.504 363.621 281.036C363.855 280.57 364.085 280.102 364.31 279.631C364.532 279.159 364.75 278.684 364.962 278.208C365.173 277.729 365.379 277.249 365.579 276.766C365.783 276.284 365.983 275.801 366.177 275.315C366.367 274.83 366.551 274.344 366.731 273.855C366.914 273.368 367.092 272.878 367.265 272.386C367.437 271.893 367.603 271.397 367.764 270.899C367.926 270.402 368.083 269.904 368.235 269.403C368.385 268.903 368.53 268.401 368.67 267.898C368.812 267.395 368.948 266.89 369.079 266.384C369.208 265.881 369.332 265.376 369.45 264.87C369.571 264.36 369.685 263.85 369.795 263.338C369.903 262.828 370.006 262.317 370.103 261.805C370.202 261.293 370.296 260.779 370.384 260.264C370.471 259.748 370.553 259.231 370.629 258.713C370.704 258.197 370.773 257.68 370.837 257.163C370.903 256.644 370.964 256.124 371.019 255.603C371.073 255.084 371.122 254.564 371.165 254.044C371.209 253.525 371.249 253.005 371.282 252.485C371.315 251.965 371.343 251.445 371.365 250.925C371.385 250.402 371.4 249.88 371.409 249.357C371.421 248.834 371.427 248.311 371.428 247.788C371.426 247.292 371.42 246.797 371.409 246.301C371.4 245.778 371.385 245.255 371.365 244.732C371.343 244.212 371.315 243.692 371.282 243.173C371.252 242.65 371.215 242.127 371.174 241.604C371.13 241.084 371.082 240.564 371.028 240.045C370.972 239.527 370.912 239.011 370.846 238.494C370.782 237.974 370.713 237.454 370.638 236.935C370.561 236.42 370.48 235.906 370.393 235.393C370.304 234.879 370.211 234.365 370.112 233.852C370.014 233.337 369.912 232.823 369.804 232.311C369.697 231.802 369.585 231.294 369.468 230.787C369.349 230.278 369.225 229.771 369.096 229.264C368.965 228.758 368.829 228.253 368.688 227.75C368.548 227.247 368.403 226.745 368.253 226.245C368.104 225.745 367.95 225.246 367.791 224.749C367.63 224.254 367.463 223.762 367.292 223.271C367.119 222.776 366.941 222.284 366.757 221.793C366.578 221.304 366.394 220.818 366.205 220.333C366.01 219.848 365.811 219.364 365.607 218.883C365.406 218.4 365.201 217.919 364.99 217.441C364.777 216.964 364.56 216.489 364.337 216.017C364.115 215.543 363.889 215.072 363.657 214.603C363.426 214.135 363.191 213.669 362.95 213.206C362.707 212.744 362.459 212.285 362.207 211.828C361.958 211.372 361.704 210.919 361.445 210.468C361.184 210.015 360.918 209.565 360.648 209.117C360.377 208.67 360.102 208.226 359.823 207.784C359.543 207.343 359.259 206.905 358.971 206.47C358.682 206.034 358.389 205.602 358.091 205.173C357.793 204.744 357.491 204.318 357.185 203.895C356.878 203.471 356.566 203.051 356.251 202.634C355.935 202.22 355.614 201.809 355.29 201.401C354.965 200.993 354.635 200.588 354.302 200.186C353.97 199.784 353.635 199.385 353.295 198.989C352.955 198.593 352.61 198.2 352.262 197.811C351.912 197.423 351.559 197.039 351.201 196.659C350.846 196.278 350.486 195.9 350.122 195.526C349.755 195.153 349.383 194.784 349.007 194.42C348.636 194.053 348.262 193.69 347.883 193.332C347.503 192.974 347.119 192.62 346.732 192.271C346.343 191.922 345.95 191.578 345.553 191.237C345.158 190.895 344.759 190.556 344.357 190.222C343.955 189.888 343.55 189.559 343.142 189.233C342.734 188.912 342.323 188.594 341.909 188.281C341.492 187.963 341.072 187.648 340.649 187.338C340.226 187.032 339.8 186.729 339.371 186.432C338.942 186.134 338.509 185.841 338.074 185.552C337.642 185.263 337.207 184.979 336.769 184.7C336.328 184.42 335.883 184.145 335.436 183.875C334.989 183.604 334.539 183.338 334.086 183.077C333.635 182.815 333.182 182.558 332.726 182.306C332.266 182.053 331.804 181.806 331.339 181.563C330.879 181.322 330.417 181.086 329.952 180.856C329.483 180.624 329.011 180.397 328.538 180.175C328.065 179.953 327.591 179.735 327.114 179.523C326.636 179.309 326.155 179.1 325.673 178.897C325.194 178.696 324.714 178.499 324.231 178.308C323.744 178.115 323.254 177.928 322.763 177.745C322.275 177.562 321.786 177.384 321.294 177.211C320.8 177.039 320.305 176.873 319.807 176.712C319.31 176.553 318.812 176.399 318.312 176.25C317.811 176.097 317.31 175.949 316.807 175.806C316.304 175.668 315.799 175.535 315.293 175.407C314.79 175.275 314.285 175.148 313.779 175.026C313.269 174.909 312.759 174.797 312.247 174.691C311.737 174.579 311.227 174.474 310.715 174.373C310.202 174.277 309.688 174.187 309.174 174.101C308.658 174.014 308.141 173.933 307.623 173.856C307.108 173.778 306.591 173.706 306.073 173.639C305.554 173.573 305.035 173.512 304.514 173.457C303.995 173.403 303.475 173.354 302.955 173.311C302.436 173.269 301.916 173.233 301.396 173.202C300.876 173.166 300.357 173.136 299.837 173.111C299.314 173.091 298.791 173.076 298.268 173.067C297.746 173.055 297.226 173.048 296.703 173.047Z" fill="#FF8080"/>
<path d="M296.698 322.522C337.967 322.522 371.423 289.061 371.423 247.784C371.423 206.508 337.967 173.047 296.698 173.047C255.428 173.047 221.973 206.508 221.973 247.784C221.973 289.061 255.428 322.522 296.698 322.522Z" fill="#FF8080"/>
<path d="M237.019 200.195H165.083C158.398 200.195 152.979 205.098 152.979 211.145V253.906C152.979 259.953 158.398 264.856 165.083 264.856H237.019C243.704 264.856 249.124 259.953 249.124 253.906V211.145C249.124 205.098 243.704 200.195 237.019 200.195Z" fill="#FF8080"/>
<path d="M222.401 187.109H179.718C157.103 187.109 138.77 204.287 138.77 225.476V239.581C138.77 260.77 157.103 277.948 179.718 277.948H222.401C245.016 277.948 263.349 260.77 263.349 239.581V225.476C263.349 204.287 245.016 187.109 222.401 187.109Z" fill="#FF5555"/>
<path d="M225.11 247.587C229.459 247.587 232.984 244.061 232.984 239.711C232.984 235.362 229.459 231.836 225.11 231.836C220.762 231.836 217.236 235.362 217.236 239.711C217.236 244.061 220.762 247.587 225.11 247.587Z" fill="black"/>
<path d="M175.452 247.587C179.801 247.587 183.326 244.061 183.326 239.711C183.326 235.362 179.801 231.836 175.452 231.836C171.103 231.836 167.578 235.362 167.578 239.711C167.578 244.061 171.103 247.587 175.452 247.587Z" fill="black"/>
<g filter="url(#filter3_f_164_2)">
<path d="M306.027 110.05C298.391 116.475 270.98 136.16 261.599 132.758C252.218 129.356 243.788 96.6766 242.043 86.8502C240.298 77.0239 236.959 43.4395 244.594 37.0147C252.23 30.5898 284.742 39.628 294.123 43.0295C303.504 46.431 334.254 60.3307 335.999 70.1571C337.744 79.9834 313.662 103.625 306.027 110.05Z" fill="#FF5555"/>
</g>
<path d="M306.027 110.05C298.391 116.475 270.98 136.159 261.599 132.758C252.218 129.356 243.789 96.6765 242.043 86.8502C240.298 77.0238 236.959 43.4395 244.594 37.0146C252.23 30.5898 284.742 39.6281 294.123 43.0296C303.504 46.4311 334.254 60.3308 335.999 70.1571C337.744 79.9835 313.662 103.625 306.027 110.05Z" fill="#FF8080"/>
<g filter="url(#filter4_f_164_2)">
<path d="M87.4794 110.05C95.1152 116.475 122.525 136.16 131.906 132.758C141.287 129.356 149.717 96.6766 151.463 86.8502C153.208 77.0239 156.547 43.4395 148.911 37.0147C141.276 30.5898 108.764 39.628 99.3827 43.0295C90.0017 46.431 59.252 60.3307 57.5067 70.1571C55.7615 79.9834 79.8436 103.625 87.4794 110.05Z" fill="#FF5555"/>
</g>
<path d="M87.4794 110.05C95.1151 116.475 122.525 136.159 131.907 132.758C141.288 129.356 149.717 96.6765 151.463 86.8502C153.208 77.0238 156.547 43.4395 148.911 37.0146C141.276 30.5898 108.764 39.6281 99.3828 43.0296C90.0017 46.4311 59.252 60.3308 57.5068 70.1571C55.7616 79.9835 79.8436 103.625 87.4794 110.05Z" fill="#FF8080"/>
<path d="M161.523 137.969C147.148 135.156 58.3984 137.969 58.3984 137.969C58.3984 137.969 63.3984 192.031 96.2109 208.594C112.444 216.787 127.869 217.477 144.648 210.469C166.249 201.447 165.83 176.766 189.023 173.594C193.497 172.982 200.586 172.969 200.586 172.969C200.586 172.969 207.675 172.982 212.148 173.594C235.342 176.766 234.923 201.447 256.523 210.469C273.303 217.477 288.728 216.787 304.961 208.594C337.773 192.031 342.773 137.969 342.773 137.969C342.773 137.969 254.023 135.156 239.648 137.969C225.273 140.781 223.74 146.974 219.336 147.969C209.648 150.156 200.586 150.156 200.586 150.156C200.586 150.156 191.523 150.156 181.836 147.969C177.432 146.974 175.898 140.781 161.523 137.969Z" fill="black"/>
<path d="M143.627 141.012C125.831 140.502 95.9854 141.122 78.8266 141.568C71.6404 141.754 66.2429 147.977 67.7979 154.995C69.7122 163.639 73.1647 175.238 79.196 185.533C80.2629 187.354 82.6585 187.803 84.386 186.591L144.593 144.347C146.052 143.323 145.408 141.063 143.627 141.012Z" fill="white" fill-opacity="0.8"/>
<path d="M229.868 164.408C227.729 148.158 232.064 144.31 244.73 141.781C249.861 140.757 272.639 140.73 291.27 140.898C293.599 140.92 294.624 143.835 292.828 145.317L243.498 186.02C242.099 187.175 240.008 186.901 239.004 185.39C233.456 177.05 230.616 170.091 229.868 164.408Z" fill="white" fill-opacity="0.8"/>
<defs>
<filter id="filter0_f_164_2" x="38.6769" y="38.1398" width="323.869" height="323.92" filterUnits="userSpaceOnUse" color-interpolation-filters="sRGB">
<feFlood flood-opacity="0" result="BackgroundImageFix"/>
<feBlend mode="normal" in="SourceGraphic" in2="BackgroundImageFix" result="shape"/>
<feGaussianBlur stdDeviation="5.83243" result="effect1_foregroundBlur_164_2"/>
</filter>
<filter id="filter1_f_164_2" x="23.983" y="167.245" width="161.089" height="161.123" filterUnits="userSpaceOnUse" color-interpolation-filters="sRGB">
<feFlood flood-opacity="0" result="BackgroundImageFix"/>
<feBlend mode="normal" in="SourceGraphic" in2="BackgroundImageFix" result="shape"/>
<feGaussianBlur stdDeviation="2.90107" result="effect1_foregroundBlur_164_2"/>
</filter>
<filter id="filter2_f_164_2" x="216.171" y="167.44" width="161.089" height="161.123" filterUnits="userSpaceOnUse" color-interpolation-filters="sRGB">
<feFlood flood-opacity="0" result="BackgroundImageFix"/>
<feBlend mode="normal" in="SourceGraphic" in2="BackgroundImageFix" result="shape"/>
<feGaussianBlur stdDeviation="2.90107" result="effect1_foregroundBlur_164_2"/>
</filter>
<filter id="filter3_f_164_2" x="236.017" y="30.9879" width="103.85" height="105.94" filterUnits="userSpaceOnUse" color-interpolation-filters="sRGB">
<feFlood flood-opacity="0" result="BackgroundImageFix"/>
<feBlend mode="normal" in="SourceGraphic" in2="BackgroundImageFix" result="shape"/>
<feGaussianBlur stdDeviation="1.88886" result="effect1_foregroundBlur_164_2"/>
</filter>
<filter id="filter4_f_164_2" x="53.6383" y="30.9879" width="103.85" height="105.94" filterUnits="userSpaceOnUse" color-interpolation-filters="sRGB">
<feFlood flood-opacity="0" result="BackgroundImageFix"/>
<feBlend mode="normal" in="SourceGraphic" in2="BackgroundImageFix" result="shape"/>
<feGaussianBlur stdDeviation="1.88886" result="effect1_foregroundBlur_164_2"/>
</filter>
</defs>
</svg>
